<?xml version="1.0" encoding="utf-8"?>
<!-- Generator: Adobe Illustrator 15.0.0, SVG Export Plug-In . SVG Version: 6.00 Build 0)  -->
<!DOCTYPE svg PUBLIC "-//W3C//DTD SVG 1.1//EN" "http://www.w3.org/Graphics/SVG/1.1/DTD/svg11.dtd">
<svg version="1.1" id="Layer_1" xmlns="http://www.w3.org/2000/svg" xlink="http://www.w3.org/1999/xlink" x="0px" y="0px"
	 width="30px" height="30px" viewBox="0 0 30 30" enable-background="new 0 0 30 30" space="preserve">
<g>
	<path d="M24.067,1C26.792,1,29,3.284,29,6.099v17.803C29,26.718,26.792,29,24.067,29H5.933C3.208,29,1,26.718,1,23.901V6.099
		C1,3.284,3.208,1,5.933,1H24.067 M24.067,0H5.933C2.661,0,0,2.736,0,6.099v17.803C0,27.265,2.661,30,5.933,30h18.135
		C27.339,30,30,27.265,30,23.901V6.099C30,2.736,27.339,0,24.067,0L24.067,0z"/>
</g>
<circle fill="none" stroke="#808285" stroke-width="2" stroke-miterlimit="3" cx="10.672" cy="10.484" r="7.234"/>
<line fill="none" stroke="#808285" stroke-width="3" stroke-linecap="round" stroke-miterlimit="3" x1="16" y1="16.125" x2="20.031" y2="20.156"/>
<line fill="none" stroke="#808285" stroke-width="4" stroke-linecap="round" stroke-miterlimit="3" x1="19.742" y1="19.7" x2="25.086" y2="25.044"/>
</svg>
